<?xml version="1.0" encoding="UTF-8" standalone="no"?>
<!DOCTYPE svg PUBLIC "-//W3C//DTD SVG 1.1//EN" "http://www.w3.org/Graphics/SVG/1.1/DTD/svg11.dtd">
<svg width="100%" height="100%" viewBox="0 0 100 100" version="1.1" xmlns="http://www.w3.org/2000/svg" xmlns:xlink="http://www.w3.org/1999/xlink" xml:space="preserve" xmlns:serif="http://www.serif.com/" style="fill-rule:evenodd;clip-rule:evenodd;stroke-linejoin:round;stroke-miterlimit:2;">
    <g transform="matrix(2.65255,0,0,2.65255,-10.2458,-102.704)">
        <path d="M37.6,74.8C37.6,75.1 37.5,75.2 37.2,75.2L34.7,75.2C34.4,75.2 34.3,75.1 34.3,74.8L34.3,74.1C34.3,72.9 33.7,72.3 32.5,72.3C32,72.3 31.6,72.5 31.3,72.8C29.1,75 26,76 21.9,76C16.4,76 12.4,74.7 9.9,72.1C7.4,69.5 6.2,65.4 6.2,59.8L6.2,39.3L15.2,39.3C15.5,39.3 15.6,39.4 15.6,39.7L15.6,59.8C15.6,62.9 16,65 16.8,66C17.6,67 19.3,67.5 21.9,67.5C26,67.5 28,65 28,59.9L28,39.8C28,39.5 28.1,39.4 28.4,39.4L37.7,39.4L37.7,74.8L37.6,74.8Z" style="fill-rule:nonzero;"/>
    </g>
</svg>
